<svg width="128" height="128" viewBox="0 0 128 128" fill="none" xmlns="http://www.w3.org/2000/svg">
<rect width="128" height="128" fill="#F9F7F7"/>
<path d="M40.7188 82C37.6562 82 35.625 82.0625 34.625 82.1875V40.25C35.125 40.375 36.1562 40.4375 37.7188 40.4375C39.3021 40.4375 41.1354 40.3958 43.2188 40.3125V74.5H49.6875C51.5625 74.5 53.0625 74.4375 54.1875 74.3125C54.0417 79.1875 53.9688 81.7188 53.9688 81.9062V82.2188C51.9271 82.0729 48.5 82 43.6875 82H40.7188ZM85.0625 40.2812C86.3542 40.3854 87.4271 40.4375 88.2812 40.4375H90.875C91.75 40.4375 92.6667 40.3542 93.625 40.1875V66.0312C93.625 71.1562 92.0729 75.2708 88.9688 78.375C86.0312 81.3125 82.3438 82.7812 77.9062 82.7812C73.0521 82.7812 69.125 81.5208 66.125 79C62.7708 76.1667 61.0938 72.0833 61.0938 66.75V40.2812C62.8229 40.3854 64.4479 40.4375 65.9688 40.4375C67.5104 40.4375 68.7812 40.3542 69.7812 40.1875V67.1562C69.7812 69.7812 70.5833 71.8229 72.1875 73.2812C73.6875 74.6146 75.5625 75.2812 77.8125 75.2812C81.1458 75.2812 83.3646 73.5729 84.4688 70.1562C84.8646 68.9271 85.0625 67.4062 85.0625 65.5938V40.2812Z" fill="#343F56"/>
</svg>
